# xmcd CD database file
#
# Track frame offsets:
#	150
#	13390
#	23890
#	40253
#	57970
#	70430
#	86228
#	95968
#	115993
#	126565
#	138868
#	151090
#	165795
#	178390
#	190615
#	206140
#	219790
#	237038
#	251890
#	264115
#
# Disc length: 3681 seconds
#
# Revision: 0
# Processed by: cddbd v1.4PL0 Copyright (c) Steve Scherf et al.
# Submitted via: CDex 1.50beta10
#
DISCID=200e5f14
DTITLE=Sir Douglas Quintet - Spotlight
DYEAR=1990
DGENRE=Country
TTITLE0=Meet me in Stockholm
TTITLE1=Who were you thinking of
TTITLE2=Everybody gets lonely sometimes
TTITLE3=Long black veil
TTITLE4=Adios Mexico
TTITLE5=Carol Jane
TTITLE6=Qué pasó
TTITLE7=The ballad of The Wasa
TTITLE8=I wanna fall in love again
TTITLE9=I know you know
TTITLE10=Sugar bee
TTITLE11=Can't go back to Austin
TTITLE12=Susie Darlin'
TTITLE13=Got it bad for you
TTITLE14=Little Georgie Baker
TTITLE15=Never be a saint
TTITLE16=County line
TTITLE17=Down to saying goodbye
TTITLE18=Be real
TTITLE19=Every breath you take
EXTD=YEAR: 1990
EXTT0=
EXTT1=
EXTT2=
EXTT3=
EXTT4=
EXTT5=
EXTT6=
EXTT7=
EXTT8=
EXTT9=
EXTT10=
EXTT11=
EXTT12=
EXTT13=
EXTT14=
EXTT15=
EXTT16=
EXTT17=
EXTT18=
EXTT19=
PLAYORDER=
